<svg xmlns="http://www.w3.org/2000/svg" viewBox="0 0 460 153.36"><defs><style>.cls-1{fill:#fff;}</style></defs><g id="Camada_2" data-name="Camada 2"><g id="Camada_1-2" data-name="Camada 1"><path class="cls-1" d="M283.06,0H164L117.73,89.7V0H79.07L32.82,89.7V0H0V153.36H38.65L84.91,63.63v89.73h38.65l46.25-89.7v89.7H283.06A76.68,76.68,0,0,0,283.06,0Zm31,107.7a43.57,43.57,0,0,1-31,12.85H202.63V32.8h80.43a43.88,43.88,0,0,1,31,74.9Z"/><polygon class="cls-1" points="421.35 0 342.28 153.36 380.93 153.36 427.18 63.66 427.18 153.36 460 153.36 460 0 421.35 0"/></g></g></svg>