<svg id="Camada_1" data-name="Camada 1" xmlns="http://www.w3.org/2000/svg" viewBox="0 0 680.08 287.06"><path d="M191.58,216h18.61v51h31.37v14.75h-50Z"/><path d="M289,216h18.6v65.76H289Z"/><path d="M5.57,88.91c0-46.18,38-83.61,84.8-83.61s84.81,37.43,84.81,83.61-38,83.61-84.81,83.61S5.57,135.08,5.57,88.91m140.46,0a55.66,55.66,0,1,0-55.66,55.66A55.67,55.67,0,0,0,146,88.91"/><path d="M191.89,88.91c0-46.18,38-83.61,84.81-83.61a85.07,85.07,0,0,1,67,32.39L321.06,55A56.23,56.23,0,0,0,276.7,33.24a55.67,55.67,0,0,0,0,111.33,56.23,56.23,0,0,0,44.36-21.77l22.67,17.32a85.08,85.08,0,0,1-67,32.4c-46.84,0-84.81-37.44-84.81-83.61"/><path d="M358.15,88.91c0-46.18,38-83.61,84.81-83.61a85.11,85.11,0,0,1,67,32.39L487.32,55A55.73,55.73,0,1,0,443,144.57a56.21,56.21,0,0,0,44.36-21.77L510,140.12a85.12,85.12,0,0,1-67,32.4c-46.84,0-84.81-37.44-84.81-83.61"/><polygon points="611.25 7.79 579.69 7.79 516.42 170.07 547.7 170.07 561.4 134.53 561.4 134.53 572.63 105.39 572.63 105.39 595.47 46.15 643.24 170.07 674.51 170.07 611.25 7.79"/><path d="M373.63,230.38v14.47h29v14.37h-29v22.55H355V216H406.6v14.37Z"/><polygon points="505.06 267.39 472.44 267.39 472.44 255.37 505.06 255.37 505.06 241.46 472.44 241.46 472.44 230.38 505.06 230.38 505.06 216.01 454.03 216.01 454.03 281.76 505.06 281.76 505.06 267.39"/></svg>