<svg xmlns="http://www.w3.org/2000/svg" viewBox="0 0 1750.53 583.6"><defs><style>.cls-1{fill:#fff;}</style></defs><g id="Camada_2" data-name="Camada 2"><g id="Layer_1" data-name="Layer 1"><path class="cls-1" d="M1077.17,0H624L448,341.35V0H300.9l-176,341.35V0H0V583.6H147.07L323.12,242.15V583.6H470.2l176-341.35V583.6h431C1238.33,583.6,1369,453,1369,291.8S1238.33,0,1077.17,0Zm118.07,409.87a165.91,165.91,0,0,1-118.07,48.9H771.1V124.83h306.07a167,167,0,0,1,118.07,285Z"/><polygon class="cls-1" points="1603.46 0 1302.56 583.6 1449.63 583.6 1625.63 242.25 1625.63 583.6 1750.53 583.6 1750.53 0 1603.46 0"/></g></g></svg>